<svg width="5" height="5" viewBox="0 0 5 5" fill="none" xmlns="http://www.w3.org/2000/svg">
<path d="M3.30068 1.00833H3.49098V1.19863C3.49098 1.24911 3.51103 1.29751 3.54672 1.3332C3.5824 1.36889 3.63081 1.38894 3.68128 1.38894C3.73175 1.38894 3.78015 1.36889 3.81584 1.3332C3.85153 1.29751 3.87158 1.24911 3.87158 1.19863V1.00833H4.06188C4.11235 1.00833 4.16076 0.988283 4.19644 0.952595C4.23213 0.916907 4.25218 0.868503 4.25218 0.818032C4.25218 0.767561 4.23213 0.719157 4.19644 0.683468C4.16076 0.64778 4.11235 0.62773 4.06188 0.62773H3.87158V0.437429C3.87158 0.386958 3.85153 0.338554 3.81584 0.302866C3.78015 0.267177 3.73175 0.247128 3.68128 0.247128C3.63081 0.247128 3.5824 0.267177 3.54672 0.302866C3.51103 0.338554 3.49098 0.386958 3.49098 0.437429V0.62773H3.30068C3.25021 0.62773 3.2018 0.64778 3.16611 0.683468C3.13042 0.719157 3.11038 0.767561 3.11038 0.818032C3.11038 0.868503 3.13042 0.916907 3.16611 0.952595C3.2018 0.988283 3.25021 1.00833 3.30068 1.00833ZM1.96857 1.76954V2.91135C1.96857 3.06276 2.02872 3.20797 2.13578 3.31504C2.24285 3.4221 2.38806 3.48225 2.53947 3.48225H2.72977C2.88119 3.48225 3.0264 3.4221 3.13346 3.31504C3.24053 3.20797 3.30068 3.06276 3.30068 2.91135V1.76954C3.30068 1.61813 3.24053 1.47291 3.13346 1.36585C3.0264 1.25878 2.88119 1.19863 2.72977 1.19863H2.53947C2.38806 1.19863 2.24285 1.25878 2.13578 1.36585C2.02872 1.47291 1.96857 1.61813 1.96857 1.76954ZM2.92007 1.76954V2.91135C2.92007 2.96182 2.90002 3.01022 2.86434 3.04591C2.82865 3.0816 2.78024 3.10165 2.72977 3.10165H2.53947C2.489 3.10165 2.4406 3.0816 2.40491 3.04591C2.36922 3.01022 2.34917 2.96182 2.34917 2.91135V1.76954C2.34917 1.71907 2.36922 1.67066 2.40491 1.63497C2.4406 1.59929 2.489 1.57924 2.53947 1.57924H2.72977C2.78024 1.57924 2.82865 1.59929 2.86434 1.63497C2.90002 1.67066 2.92007 1.71907 2.92007 1.76954ZM3.98576 1.76954C3.96127 1.77453 3.938 1.7843 3.91728 1.79829C3.89656 1.81228 3.87881 1.83021 3.86502 1.85107C3.85124 1.87192 3.8417 1.89528 3.83695 1.91982C3.83219 1.94437 3.83232 1.9696 3.83733 1.99409C3.91163 2.35494 3.86759 2.73014 3.71175 3.06397C3.55591 3.39781 3.29657 3.6725 2.97224 3.84726C2.64791 4.02202 2.27587 4.08754 1.91134 4.0341C1.54682 3.98065 1.20925 3.81109 0.948736 3.55057C0.688224 3.29006 0.518659 2.95249 0.465213 2.58797C0.411766 2.22344 0.477287 1.8514 0.65205 1.52707C0.826813 1.20274 1.1015 0.943402 1.43534 0.787562C1.76918 0.631722 2.14437 0.587684 2.50522 0.661985C2.55569 0.672079 2.6081 0.66171 2.65093 0.633159C2.69375 0.604609 2.72348 0.560215 2.73358 0.509744C2.74367 0.459273 2.7333 0.406859 2.70475 0.364033C2.6762 0.321207 2.63181 0.291476 2.58134 0.281382C2.44207 0.255435 2.3005 0.243956 2.15887 0.247128C1.74485 0.247128 1.34013 0.369899 0.995886 0.599915C0.651642 0.829931 0.383337 1.15686 0.224899 1.53937C0.0664607 1.92187 0.0250061 2.34276 0.105777 2.74883C0.186548 3.15489 0.385917 3.52788 0.678672 3.82064C0.971427 4.11339 1.34442 4.31276 1.75048 4.39353C2.15655 4.4743 2.57744 4.43285 2.95995 4.27441C3.34245 4.11597 3.66938 3.84767 3.8994 3.50343C4.12941 3.15918 4.25218 2.75446 4.25218 2.34044C4.25259 2.19982 4.23856 2.05953 4.21032 1.92178C4.20576 1.89694 4.1963 1.87326 4.1825 1.85212C4.1687 1.83097 4.15083 1.81279 4.12993 1.79862C4.10903 1.78445 4.08552 1.77458 4.06077 1.76959C4.03602 1.7646 4.01052 1.76458 3.98576 1.76954ZM1.20736 1.38894V3.29195C1.20736 3.34242 1.22741 3.39082 1.2631 3.42651C1.29879 3.4622 1.34719 3.48225 1.39766 3.48225C1.44813 3.48225 1.49654 3.4622 1.53223 3.42651C1.56792 3.39082 1.58796 3.34242 1.58796 3.29195V1.38894C1.58796 1.33846 1.56792 1.29006 1.53223 1.25437C1.49654 1.21868 1.44813 1.19863 1.39766 1.19863C1.34719 1.19863 1.29879 1.21868 1.2631 1.25437C1.22741 1.29006 1.20736 1.33846 1.20736 1.38894Z" fill="white"/>
</svg>
