<svg width="16" height="16" viewBox="0 0 16 16" fill="none" xmlns="http://www.w3.org/2000/svg">
<path d="M11.3101 14.2877C11.2534 14.3177 11.2582 14.3272 11.3125 14.2996C11.3301 14.2925 11.3449 14.2825 11.3577 14.2706C11.3577 14.2606 11.3577 14.2606 11.3101 14.2877ZM11.4244 14.2258C11.3973 14.2482 11.3973 14.2482 11.4296 14.2334C11.4468 14.2234 11.462 14.2139 11.462 14.211C11.462 14.1982 11.4544 14.201 11.4244 14.2258ZM11.4987 14.181C11.4716 14.2034 11.4716 14.2034 11.5039 14.1886C11.5216 14.1786 11.5363 14.1682 11.5363 14.1658C11.5363 14.1539 11.5287 14.1563 11.4987 14.181ZM11.5739 14.1367C11.5468 14.1591 11.5468 14.1591 11.5782 14.1439C11.5958 14.1343 11.6106 14.1243 11.6106 14.1215C11.6106 14.1096 11.603 14.112 11.5739 14.1367ZM11.6754 14.0696C11.6235 14.1043 11.6054 14.1267 11.653 14.102C11.6849 14.0824 11.7392 14.0396 11.7297 14.0396C11.7092 14.0472 11.692 14.0601 11.6749 14.0696H11.6754ZM7.12114 0.00350034C7.08638 0.00588152 6.98208 0.0154062 6.89065 0.023026C4.72473 0.219235 2.69835 1.38506 1.41394 3.18094C0.703876 4.16532 0.24288 5.30876 0.0690541 6.50935C0.00761976 6.92844 0 7.05226 0 7.6204C0 8.18808 0.00761976 8.30999 0.0690541 8.72908C0.483855 11.5917 2.52024 13.9948 5.2805 14.8854C5.77721 15.044 6.29773 15.1535 6.89065 15.2206C7.12114 15.2454 8.1179 15.2454 8.3484 15.2206C9.37326 15.1063 10.2386 14.8535 11.0949 14.4168C11.2263 14.3501 11.2511 14.3325 11.2334 14.3177C10.8143 13.7648 10.4029 13.2114 9.99094 12.6533L8.7732 11.0088L7.24782 8.74908C6.7392 7.99282 6.22868 7.23846 5.71006 6.48982C5.70482 6.48982 5.69815 7.4942 5.6953 8.71908C5.69006 10.8645 5.69006 10.9517 5.66291 11.0012C5.63577 11.0607 5.591 11.1103 5.53147 11.1379C5.48432 11.1603 5.44194 11.165 5.21668 11.165H4.95904L4.89189 11.1231C4.84998 11.096 4.81521 11.0583 4.79283 11.0141L4.76045 10.9469L4.76283 7.96044L4.76807 4.97397L4.81521 4.91444C4.84522 4.87777 4.88236 4.84776 4.92427 4.82538C4.98666 4.79538 5.01142 4.79062 5.26907 4.79062C5.57147 4.79062 5.62148 4.80252 5.70101 4.88967C6.31821 5.80976 6.93351 6.73223 7.5388 7.65755C8.52889 9.15864 9.88045 11.2069 10.5448 12.2118L11.753 14.0401L11.8125 14.0005C12.3931 13.6133 12.9212 13.1524 13.377 12.6266C14.3371 11.5274 14.96 10.1754 15.1709 8.73241C15.2324 8.31333 15.24 8.18903 15.24 7.62136C15.24 7.05321 15.2324 6.93177 15.1709 6.51268C14.7561 3.65003 12.7198 1.24695 9.95951 0.355914C9.44327 0.192566 8.91226 0.0811267 8.37459 0.0239785C8.23029 0.00921516 7.24544 -0.00840554 7.12162 0.00445281L7.12114 0.00350034ZM10.2391 4.61203C10.311 4.64632 10.3653 4.71108 10.39 4.78538C10.4029 4.82538 10.4053 5.65355 10.4029 7.51897L10.3976 10.1973L9.92664 9.47344L9.45279 8.74908V6.80461C9.45279 5.54402 9.45803 4.83729 9.4647 4.80252C9.48708 4.72299 9.54137 4.65632 9.61376 4.61441C9.67281 4.58441 9.69567 4.58202 9.93141 4.58202C10.1519 4.58202 10.1895 4.58441 10.2391 4.61203Z" fill="white"/>
</svg>
