<svg xmlns="http://www.w3.org/2000/svg" width="6.836in" height="5.14in" viewBox="0 0 492.206 370.096"><path d="M333.3,360.224a10.233,10.233,0,0,1,2.968,7.208,9.86,9.86,0,0,1-3,7.216,10.479,10.479,0,0,1-7.293,3.046,10.369,10.369,0,0,1-10.232-10.262,10.47,10.47,0,0,1,3.107-7.353,9.8,9.8,0,0,1,7.125-2.907A10.114,10.114,0,0,1,333.3,360.224Zm-.938.935A8.749,8.749,0,0,0,326,358.51a8.6,8.6,0,0,0-6.214,2.539,9.139,9.139,0,0,0-2.708,6.383,8.857,8.857,0,0,0,2.624,6.246,8.751,8.751,0,0,0,6.211,2.648,9.055,9.055,0,0,0,6.387-2.618,8.523,8.523,0,0,0,2.6-6.187A8.843,8.843,0,0,0,332.358,361.159Zm-1.256,3.456a3.036,3.036,0,0,1-2.651,3.135l2.6,5.3H328.6l-2.365-4.96h-2.166v4.96h-2.2V361.422h4.389C329.507,361.422,331.1,362.5,331.1,364.615Zm-7.037-1.768v3.846h1.85c1.994,0,2.934-.482,2.934-1.855,0-1.418-.94-1.991-2.992-1.991Z" transform="translate(0 -7.885)" fill="#231f20"/><path d="M333.3,360.224a10.233,10.233,0,0,1,2.968,7.208,9.86,9.86,0,0,1-3,7.216,10.479,10.479,0,0,1-7.293,3.046,10.369,10.369,0,0,1-10.232-10.262,10.47,10.47,0,0,1,3.107-7.353,9.8,9.8,0,0,1,7.125-2.907A10.114,10.114,0,0,1,333.3,360.224Zm-.938.935A8.749,8.749,0,0,0,326,358.51a8.6,8.6,0,0,0-6.214,2.539,9.139,9.139,0,0,0-2.708,6.383,8.857,8.857,0,0,0,2.624,6.246,8.751,8.751,0,0,0,6.211,2.648,9.055,9.055,0,0,0,6.387-2.618,8.523,8.523,0,0,0,2.6-6.187A8.843,8.843,0,0,0,332.358,361.159Zm-1.256,3.456a3.036,3.036,0,0,1-2.651,3.135l2.6,5.3H328.6l-2.365-4.96h-2.166v4.96h-2.2V361.422h4.389C329.507,361.422,331.1,362.5,331.1,364.615Zm-7.037-1.768v3.846h1.85c1.994,0,2.934-.482,2.934-1.855,0-1.418-.94-1.991-2.992-1.991Z" transform="translate(0 -7.885)" fill="#231f20"/><polygon points="478.079 0.002 267.75 0.003 267.752 66.916 313.057 66.915 313.057 66.916 245.818 234.831 245.816 234.831 245.816 234.831 178.713 66.916 223.807 66.915 223.805 0.002 223.807 0.002 223.807 66.915 223.807 66.916 178.713 66.916 178.715 66.917 223.808 66.916 223.807 0 14.127 0.002 14.129 66.917 59.165 66.916 14.131 66.916 59.165 66.915 191.897 370.096 299.742 370.096 432.842 66.916 478.079 66.915 478.079 0.002" fill="#231f20"/><path d="M333.3,360.224a10.233,10.233,0,0,1,2.968,7.208,9.86,9.86,0,0,1-3,7.216,10.479,10.479,0,0,1-7.293,3.046,10.369,10.369,0,0,1-10.232-10.262,10.47,10.47,0,0,1,3.107-7.353,9.8,9.8,0,0,1,7.125-2.907A10.114,10.114,0,0,1,333.3,360.224Zm-.938.935A8.749,8.749,0,0,0,326,358.51a8.6,8.6,0,0,0-6.214,2.539,9.139,9.139,0,0,0-2.708,6.383,8.857,8.857,0,0,0,2.624,6.246,8.751,8.751,0,0,0,6.211,2.648,9.055,9.055,0,0,0,6.387-2.618,8.523,8.523,0,0,0,2.6-6.187A8.843,8.843,0,0,0,332.358,361.159Zm-1.256,3.456a3.036,3.036,0,0,1-2.651,3.135l2.6,5.3H328.6l-2.365-4.96h-2.166v4.96h-2.2V361.422h4.389C329.507,361.422,331.1,362.5,331.1,364.615Zm-7.037-1.768v3.846h1.85c1.994,0,2.934-.482,2.934-1.855,0-1.418-.94-1.991-2.992-1.991Z" transform="translate(0 -7.885)" fill="#231f20"/><polygon points="478.079 0.002 267.75 0.003 267.752 66.916 313.057 66.915 313.057 66.916 245.818 234.831 245.816 234.831 245.816 234.831 178.713 66.916 223.807 66.915 223.805 0.002 223.807 0.002 223.807 66.915 223.807 66.916 178.713 66.916 178.715 66.917 223.808 66.916 223.807 0 14.127 0.002 14.129 66.917 59.165 66.916 14.131 66.916 59.165 66.915 191.897 370.096 299.742 370.096 432.842 66.916 478.079 66.915 478.079 0.002" fill="#231f20"/><polygon points="273.831 6.267 273.831 60.738 322.25 60.738 245.818 252.88 169.57 60.738 217.637 60.738 217.637 6.267 20.208 6.267 20.208 60.738 63.491 60.738 195.998 364.101 295.412 364.101 428.512 60.738 471.817 60.738 471.817 6.267 273.831 6.267" fill="#fff"/><path d="M333.3,360.224a10.233,10.233,0,0,1,2.968,7.208,9.86,9.86,0,0,1-3,7.216,10.479,10.479,0,0,1-7.293,3.046,10.369,10.369,0,0,1-10.232-10.262,10.47,10.47,0,0,1,3.107-7.353,9.8,9.8,0,0,1,7.125-2.907A10.114,10.114,0,0,1,333.3,360.224Zm-.938.935A8.749,8.749,0,0,0,326,358.51a8.6,8.6,0,0,0-6.214,2.539,9.139,9.139,0,0,0-2.708,6.383,8.857,8.857,0,0,0,2.624,6.246,8.751,8.751,0,0,0,6.211,2.648,9.055,9.055,0,0,0,6.387-2.618,8.523,8.523,0,0,0,2.6-6.187A8.843,8.843,0,0,0,332.358,361.159Zm-1.256,3.456a3.036,3.036,0,0,1-2.651,3.135l2.6,5.3H328.6l-2.365-4.96h-2.166v4.96h-2.2V361.422h4.389C329.507,361.422,331.1,362.5,331.1,364.615Zm-7.037-1.768v3.846h1.85c1.994,0,2.934-.482,2.934-1.855,0-1.418-.94-1.991-2.992-1.991Z" transform="translate(0 -7.885)" fill="#231f20"/><polygon points="478.079 0.002 267.75 0.003 267.752 66.916 313.057 66.915 313.057 66.916 245.818 234.831 245.816 234.831 245.816 234.831 178.713 66.916 223.807 66.915 223.805 0.002 223.807 0.002 223.807 66.915 223.807 66.916 178.713 66.916 178.715 66.917 223.808 66.916 223.807 0 14.127 0.002 14.129 66.917 59.165 66.916 14.131 66.916 59.165 66.915 191.897 370.096 299.742 370.096 432.842 66.916 478.079 66.915 478.079 0.002" fill="#231f20"/><polygon points="273.831 6.267 273.831 60.738 322.25 60.738 245.818 252.88 169.57 60.738 217.637 60.738 217.637 6.267 20.208 6.267 20.208 60.738 63.491 60.738 195.998 364.101 295.412 364.101 428.512 60.738 471.817 60.738 471.817 6.267 273.831 6.267" fill="#fff"/><polygon points="248.412 261.725 243.209 261.697 161.554 55.173 212.072 55.173 212.072 11.832 25.774 11.832 25.774 55.173 67.138 55.173 199.647 358.536 291.772 358.536 424.872 55.173 466.252 55.173 466.252 11.832 279.397 11.832 279.397 55.173 330.363 55.173 248.412 261.725" fill="#d0202f"/><path d="M333.3,360.224a10.233,10.233,0,0,1,2.968,7.208,9.86,9.86,0,0,1-3,7.216,10.479,10.479,0,0,1-7.293,3.046,10.369,10.369,0,0,1-10.232-10.262,10.47,10.47,0,0,1,3.107-7.353,9.8,9.8,0,0,1,7.125-2.907A10.114,10.114,0,0,1,333.3,360.224Zm-.938.935A8.749,8.749,0,0,0,326,358.51a8.6,8.6,0,0,0-6.214,2.539,9.139,9.139,0,0,0-2.708,6.383,8.857,8.857,0,0,0,2.624,6.246,8.751,8.751,0,0,0,6.211,2.648,9.055,9.055,0,0,0,6.387-2.618,8.523,8.523,0,0,0,2.6-6.187A8.843,8.843,0,0,0,332.358,361.159Zm-1.256,3.456a3.036,3.036,0,0,1-2.651,3.135l2.6,5.3H328.6l-2.365-4.96h-2.166v4.96h-2.2V361.422h4.389C329.507,361.422,331.1,362.5,331.1,364.615Zm-7.037-1.768v3.846h1.85c1.994,0,2.934-.482,2.934-1.855,0-1.418-.94-1.991-2.992-1.991Z" transform="translate(0 -7.885)" fill="#231f20"/><polygon points="478.079 0.002 267.75 0.003 267.752 66.916 313.057 66.915 313.057 66.916 245.818 234.831 245.816 234.831 245.816 234.831 178.713 66.916 223.807 66.915 223.805 0.002 223.807 0.002 223.807 66.915 223.807 66.916 178.713 66.916 178.715 66.917 223.808 66.916 223.807 0 14.127 0.002 14.129 66.917 59.165 66.916 14.131 66.916 59.165 66.915 191.897 370.096 299.742 370.096 432.842 66.916 478.079 66.915 478.079 0.002" fill="#231f20"/><polygon points="273.831 6.267 273.831 60.738 322.25 60.738 245.818 252.88 169.57 60.738 217.637 60.738 217.637 6.267 20.208 6.267 20.208 60.738 63.491 60.738 195.998 364.101 295.412 364.101 428.512 60.738 471.817 60.738 471.817 6.267 273.831 6.267" fill="#fff"/><polygon points="248.412 261.725 243.209 261.697 161.554 55.173 212.072 55.173 212.072 11.832 25.774 11.832 25.774 55.173 67.138 55.173 199.647 358.536 291.772 358.536 424.872 55.173 466.252 55.173 466.252 11.832 279.397 11.832 279.397 55.173 330.363 55.173 248.412 261.725" fill="#d0202f"/><path d="M446.619,286.193h0a6.667,6.667,0,0,1-4.186-1.512c-.176-.141-17.313-13.923-34.655-22.75-.607,1.712-1.636,4.513-3.047,8.074-1.887,4.769-4.635,5.77-6.607,5.77-2.694,0-5.019-1.857-6.533-3.254h0s-3.316-2.972-5.008-4.454C367.667,252.034,320.114,216.166,246.1,216a214.188,214.188,0,0,0-141.882,53.272c-1.673,1.482-3.666,3.268-3.667,3.269-1.488,1.373-3.813,3.23-6.505,3.23-1.974,0-4.721-1-6.609-5.77-1.376-3.474-2.384-6.209-3.043-8.055-17.329,8.827-34.443,22.59-34.619,22.731a6.662,6.662,0,0,1-4.185,1.512,5.548,5.548,0,0,1-4.072-1.706,7.031,7.031,0,0,1-1.709-5.428c.227-4.508-.548-49.572-.159-57.164L2.173,185.923a6.035,6.035,0,0,1-2.154-4.946,6.254,6.254,0,0,1,2.59-4.273A480.084,480.084,0,0,1,72.55,133.6a6,6,0,0,1,8.5,3.149c.467,1.065,1.48,3.336,2.288,5.146,12.754-8.314,74.718-45.469,162.77-45.469S396.118,133.582,408.872,141.9c.808-1.809,1.821-4.08,2.288-5.145a6.043,6.043,0,0,1,8.462-3.165A479.637,479.637,0,0,1,489.6,176.7a6.247,6.247,0,0,1,2.592,4.273,5.982,5.982,0,0,1-2.105,4.9L452.559,221.9c.389,7.592-.387,52.656-.161,57.164a7.021,7.021,0,0,1-1.709,5.43A5.551,5.551,0,0,1,446.619,286.193Z" transform="translate(0 -7.885)" fill="#fff"/><path d="M333.3,360.224a10.233,10.233,0,0,1,2.968,7.208,9.86,9.86,0,0,1-3,7.216,10.479,10.479,0,0,1-7.293,3.046,10.369,10.369,0,0,1-10.232-10.262,10.47,10.47,0,0,1,3.107-7.353,9.8,9.8,0,0,1,7.125-2.907A10.114,10.114,0,0,1,333.3,360.224Zm-.938.935A8.749,8.749,0,0,0,326,358.51a8.6,8.6,0,0,0-6.214,2.539,9.139,9.139,0,0,0-2.708,6.383,8.857,8.857,0,0,0,2.624,6.246,8.751,8.751,0,0,0,6.211,2.648,9.055,9.055,0,0,0,6.387-2.618,8.523,8.523,0,0,0,2.6-6.187A8.843,8.843,0,0,0,332.358,361.159Zm-1.256,3.456a3.036,3.036,0,0,1-2.651,3.135l2.6,5.3H328.6l-2.365-4.96h-2.166v4.96h-2.2V361.422h4.389C329.507,361.422,331.1,362.5,331.1,364.615Zm-7.037-1.768v3.846h1.85c1.994,0,2.934-.482,2.934-1.855,0-1.418-.94-1.991-2.992-1.991Z" transform="translate(0 -7.885)" fill="#231f20"/><polygon points="478.079 0.002 267.75 0.003 267.752 66.916 313.057 66.915 313.057 66.916 245.818 234.831 245.816 234.831 245.816 234.831 178.713 66.916 223.807 66.915 223.805 0.002 223.807 0.002 223.807 66.915 223.807 66.916 178.713 66.916 178.715 66.917 223.808 66.916 223.807 0 14.127 0.002 14.129 66.917 59.165 66.916 14.131 66.916 59.165 66.915 191.897 370.096 299.742 370.096 432.842 66.916 478.079 66.915 478.079 0.002" fill="#231f20"/><polygon points="273.831 6.267 273.831 60.738 322.25 60.738 245.818 252.88 169.57 60.738 217.637 60.738 217.637 6.267 20.208 6.267 20.208 60.738 63.491 60.738 195.998 364.101 295.412 364.101 428.512 60.738 471.817 60.738 471.817 6.267 273.831 6.267" fill="#fff"/><polygon points="248.412 261.725 243.209 261.697 161.554 55.173 212.072 55.173 212.072 11.832 25.774 11.832 25.774 55.173 67.138 55.173 199.647 358.536 291.772 358.536 424.872 55.173 466.252 55.173 466.252 11.832 279.397 11.832 279.397 55.173 330.363 55.173 248.412 261.725" fill="#d0202f"/><path d="M446.619,286.193h0a6.667,6.667,0,0,1-4.186-1.512c-.176-.141-17.313-13.923-34.655-22.75-.607,1.712-1.636,4.513-3.047,8.074-1.887,4.769-4.635,5.77-6.607,5.77-2.694,0-5.019-1.857-6.533-3.254h0s-3.316-2.972-5.008-4.454C367.667,252.034,320.114,216.166,246.1,216a214.188,214.188,0,0,0-141.882,53.272c-1.673,1.482-3.666,3.268-3.667,3.269-1.488,1.373-3.813,3.23-6.505,3.23-1.974,0-4.721-1-6.609-5.77-1.376-3.474-2.384-6.209-3.043-8.055-17.329,8.827-34.443,22.59-34.619,22.731a6.662,6.662,0,0,1-4.185,1.512,5.548,5.548,0,0,1-4.072-1.706,7.031,7.031,0,0,1-1.709-5.428c.227-4.508-.548-49.572-.159-57.164L2.173,185.923a6.035,6.035,0,0,1-2.154-4.946,6.254,6.254,0,0,1,2.59-4.273A480.084,480.084,0,0,1,72.55,133.6a6,6,0,0,1,8.5,3.149c.467,1.065,1.48,3.336,2.288,5.146,12.754-8.314,74.718-45.469,162.77-45.469S396.118,133.582,408.872,141.9c.808-1.809,1.821-4.08,2.288-5.145a6.043,6.043,0,0,1,8.462-3.165A479.637,479.637,0,0,1,489.6,176.7a6.247,6.247,0,0,1,2.592,4.273,5.982,5.982,0,0,1-2.105,4.9L452.559,221.9c.389,7.592-.387,52.656-.161,57.164a7.021,7.021,0,0,1-1.709,5.43A5.551,5.551,0,0,1,446.619,286.193Z" transform="translate(0 -7.885)" fill="#fff"/><path d="M487.822,178.642a473.2,473.2,0,0,0-69.575-42.885,3.6,3.6,0,0,0-5.261,1.959c-.846,1.919-3.456,7.755-3.456,7.755S344.744,98.823,245.735,98.822s-163.8,46.649-163.8,46.649-2.61-5.836-3.456-7.755a3.593,3.593,0,0,0-5.259-1.959A473.117,473.117,0,0,0,3.648,178.642s-3.493,2.346-.225,5.515L41.729,220.89s.352,53.349.1,58.289,3.791,5.491,6.064,3.645,20.185-15.9,37.5-24.229c0,0,.045.141.127.38.382,1.133,1.634,4.757,3.769,10.149,2.6,6.576,6.5,4.213,9.287,1.637,0,0,2-1.79,3.7-3.3a217.969,217.969,0,0,1,285.514-1.2c1.706,1.494,5.056,4.5,5.056,4.5,2.792,2.576,6.684,4.939,9.287-1.637,1.439-3.636,2.477-6.465,3.117-8.271.533-1.359.821-2.258.821-2.258,17.318,8.333,35.233,22.382,37.5,24.229s6.311,1.3,6.064-3.645.1-58.289.1-58.289l38.3-36.733C491.313,180.988,487.822,178.642,487.822,178.642ZM49.354,272.58s-.638-49.493-.437-52.238a5.1,5.1,0,0,0-1.749-4.242L11.429,181.757A476.115,476.115,0,0,1,63.036,149.15S50.834,171.232,49.811,173s-.649,2.3-.1,3.767c.853,2.276,33,75.115,33,75.115C66.348,259.725,49.354,272.58,49.354,272.58Zm346.807-9.232c-27.085-22.882-50.888-35.54-75.869-44.851-33.736-12.573-74.539-12.773-74.539-12.773l-.019,0s-33.536-.9-74.555,12.775c-25.293,8.432-48.784,21.969-75.871,44.851,0,0-36.29-84.1-38.149-88.379,0,0,65.391-68.868,188.556-68.868l.038-.02c123.163,0,188.557,68.888,188.557,68.888C432.451,179.253,396.161,263.348,396.161,263.348ZM444.3,216.1a5.094,5.094,0,0,0-1.749,4.242c.2,2.745-.439,52.238-.439,52.238s-16.994-12.855-33.356-20.694c0,0,32.146-72.839,33-75.115.553-1.47.924-1.994-.1-3.767s-13.224-23.854-13.224-23.854a476.051,476.051,0,0,1,51.606,32.607Z" transform="translate(0 -7.885)" fill="#231f20"/><path d="M333.3,360.224a10.233,10.233,0,0,1,2.968,7.208,9.86,9.86,0,0,1-3,7.216,10.479,10.479,0,0,1-7.293,3.046,10.369,10.369,0,0,1-10.232-10.262,10.47,10.47,0,0,1,3.107-7.353,9.8,9.8,0,0,1,7.125-2.907A10.114,10.114,0,0,1,333.3,360.224Zm-.938.935A8.749,8.749,0,0,0,326,358.51a8.6,8.6,0,0,0-6.214,2.539,9.139,9.139,0,0,0-2.708,6.383,8.857,8.857,0,0,0,2.624,6.246,8.751,8.751,0,0,0,6.211,2.648,9.055,9.055,0,0,0,6.387-2.618,8.523,8.523,0,0,0,2.6-6.187A8.843,8.843,0,0,0,332.358,361.159Zm-1.256,3.456a3.036,3.036,0,0,1-2.651,3.135l2.6,5.3H328.6l-2.365-4.96h-2.166v4.96h-2.2V361.422h4.389C329.507,361.422,331.1,362.5,331.1,364.615Zm-7.037-1.768v3.846h1.85c1.994,0,2.934-.482,2.934-1.855,0-1.418-.94-1.991-2.992-1.991Z" transform="translate(0 -7.885)" fill="#231f20"/><polygon points="478.079 0.002 267.75 0.003 267.752 66.916 313.057 66.915 313.057 66.916 245.818 234.831 245.816 234.831 245.816 234.831 178.713 66.916 223.807 66.915 223.805 0.002 223.807 0.002 223.807 66.915 223.807 66.916 178.713 66.916 178.715 66.917 223.808 66.916 223.807 0 14.127 0.002 14.129 66.917 59.165 66.916 14.131 66.916 59.165 66.915 191.897 370.096 299.742 370.096 432.842 66.916 478.079 66.915 478.079 0.002" fill="#231f20"/><polygon points="273.831 6.267 273.831 60.738 322.25 60.738 245.818 252.88 169.57 60.738 217.637 60.738 217.637 6.267 20.208 6.267 20.208 60.738 63.491 60.738 195.998 364.101 295.412 364.101 428.512 60.738 471.817 60.738 471.817 6.267 273.831 6.267" fill="#fff"/><polygon points="248.412 261.725 243.209 261.697 161.554 55.173 212.072 55.173 212.072 11.832 25.774 11.832 25.774 55.173 67.138 55.173 199.647 358.536 291.772 358.536 424.872 55.173 466.252 55.173 466.252 11.832 279.397 11.832 279.397 55.173 330.363 55.173 248.412 261.725" fill="#d0202f"/><path d="M446.619,286.193h0a6.667,6.667,0,0,1-4.186-1.512c-.176-.141-17.313-13.923-34.655-22.75-.607,1.712-1.636,4.513-3.047,8.074-1.887,4.769-4.635,5.77-6.607,5.77-2.694,0-5.019-1.857-6.533-3.254h0s-3.316-2.972-5.008-4.454C367.667,252.034,320.114,216.166,246.1,216a214.188,214.188,0,0,0-141.882,53.272c-1.673,1.482-3.666,3.268-3.667,3.269-1.488,1.373-3.813,3.23-6.505,3.23-1.974,0-4.721-1-6.609-5.77-1.376-3.474-2.384-6.209-3.043-8.055-17.329,8.827-34.443,22.59-34.619,22.731a6.662,6.662,0,0,1-4.185,1.512,5.548,5.548,0,0,1-4.072-1.706,7.031,7.031,0,0,1-1.709-5.428c.227-4.508-.548-49.572-.159-57.164L2.173,185.923a6.035,6.035,0,0,1-2.154-4.946,6.254,6.254,0,0,1,2.59-4.273A480.084,480.084,0,0,1,72.55,133.6a6,6,0,0,1,8.5,3.149c.467,1.065,1.48,3.336,2.288,5.146,12.754-8.314,74.718-45.469,162.77-45.469S396.118,133.582,408.872,141.9c.808-1.809,1.821-4.08,2.288-5.145a6.043,6.043,0,0,1,8.462-3.165A479.637,479.637,0,0,1,489.6,176.7a6.247,6.247,0,0,1,2.592,4.273,5.982,5.982,0,0,1-2.105,4.9L452.559,221.9c.389,7.592-.387,52.656-.161,57.164a7.021,7.021,0,0,1-1.709,5.43A5.551,5.551,0,0,1,446.619,286.193Z" transform="translate(0 -7.885)" fill="#fff"/><path d="M487.822,178.642a473.2,473.2,0,0,0-69.575-42.885,3.6,3.6,0,0,0-5.261,1.959c-.846,1.919-3.456,7.755-3.456,7.755S344.744,98.823,245.735,98.822s-163.8,46.649-163.8,46.649-2.61-5.836-3.456-7.755a3.593,3.593,0,0,0-5.259-1.959A473.117,473.117,0,0,0,3.648,178.642s-3.493,2.346-.225,5.515L41.729,220.89s.352,53.349.1,58.289,3.791,5.491,6.064,3.645,20.185-15.9,37.5-24.229c0,0,.045.141.127.38.382,1.133,1.634,4.757,3.769,10.149,2.6,6.576,6.5,4.213,9.287,1.637,0,0,2-1.79,3.7-3.3a217.969,217.969,0,0,1,285.514-1.2c1.706,1.494,5.056,4.5,5.056,4.5,2.792,2.576,6.684,4.939,9.287-1.637,1.439-3.636,2.477-6.465,3.117-8.271.533-1.359.821-2.258.821-2.258,17.318,8.333,35.233,22.382,37.5,24.229s6.311,1.3,6.064-3.645.1-58.289.1-58.289l38.3-36.733C491.313,180.988,487.822,178.642,487.822,178.642ZM49.354,272.58s-.638-49.493-.437-52.238a5.1,5.1,0,0,0-1.749-4.242L11.429,181.757A476.115,476.115,0,0,1,63.036,149.15S50.834,171.232,49.811,173s-.649,2.3-.1,3.767c.853,2.276,33,75.115,33,75.115C66.348,259.725,49.354,272.58,49.354,272.58Zm346.807-9.232c-27.085-22.882-50.888-35.54-75.869-44.851-33.736-12.573-74.539-12.773-74.539-12.773l-.019,0s-33.536-.9-74.555,12.775c-25.293,8.432-48.784,21.969-75.871,44.851,0,0-36.29-84.1-38.149-88.379,0,0,65.391-68.868,188.556-68.868l.038-.02c123.163,0,188.557,68.888,188.557,68.888C432.451,179.253,396.161,263.348,396.161,263.348ZM444.3,216.1a5.094,5.094,0,0,0-1.749,4.242c.2,2.745-.439,52.238-.439,52.238s-16.994-12.855-33.356-20.694c0,0,32.146-72.839,33-75.115.553-1.47.924-1.994-.1-3.767s-13.224-23.854-13.224-23.854a476.051,476.051,0,0,1,51.606,32.607Z" transform="translate(0 -7.885)" fill="#231f20"/><path d="M159.281,181.132c-2.653-4.881-7.562-7.587-14.2-7.825q-.511-.019-1.02-.019a40.5,40.5,0,0,0-14.478,3.015c-4.77,1.814-8.271,1.631-10.408-.533a6.523,6.523,0,0,1-1.421-2.149,6.214,6.214,0,0,1,.585-5.54c1.275-2.187,3.673-4.046,6.935-5.376a18.949,18.949,0,0,1,7.394-1.74,4.353,4.353,0,0,1,2.121.512l.541.328,1.932,4.736c3.059-1.36,6.412-2.752,10.237-4.252l-4.346-10.647-.178-.038a37.775,37.775,0,0,0-22.5,1.938c-12.34,5.037-18.346,17.684-15.278,25.2a15.015,15.015,0,0,0,2.267,3.828c2.862,3.517,7.335,5.558,12.594,5.747A29.116,29.116,0,0,0,131.972,186c6.553-2.6,11.358-2.649,13.908-.134a6.414,6.414,0,0,1,1.418,2.164,7.039,7.039,0,0,1,.171,4.391c-.818,2.908-3.4,5.268-7.679,7.013a22.543,22.543,0,0,1-9.138,1.9,9.412,9.412,0,0,1-3.748-.773l-.613-.306-.028-.065-1.8-4.422c-3.3,1.657-6.583,3.382-9.756,5.133l4.079,10,.171.042a41.708,41.708,0,0,0,8.6,1.4c4.729.167,9.695-.869,15.584-3.272,9.231-3.768,15.03-8.658,17.236-14.535a16.3,16.3,0,0,0-.309-11.805A15.77,15.77,0,0,0,159.281,181.132Z" transform="translate(0 -7.885)" fill="#231f20"/><path d="M333.3,360.224a10.233,10.233,0,0,1,2.968,7.208,9.86,9.86,0,0,1-3,7.216,10.479,10.479,0,0,1-7.293,3.046,10.369,10.369,0,0,1-10.232-10.262,10.47,10.47,0,0,1,3.107-7.353,9.8,9.8,0,0,1,7.125-2.907A10.114,10.114,0,0,1,333.3,360.224Zm-.938.935A8.749,8.749,0,0,0,326,358.51a8.6,8.6,0,0,0-6.214,2.539,9.139,9.139,0,0,0-2.708,6.383,8.857,8.857,0,0,0,2.624,6.246,8.751,8.751,0,0,0,6.211,2.648,9.055,9.055,0,0,0,6.387-2.618,8.523,8.523,0,0,0,2.6-6.187A8.843,8.843,0,0,0,332.358,361.159Zm-1.256,3.456a3.036,3.036,0,0,1-2.651,3.135l2.6,5.3H328.6l-2.365-4.96h-2.166v4.96h-2.2V361.422h4.389C329.507,361.422,331.1,362.5,331.1,364.615Zm-7.037-1.768v3.846h1.85c1.994,0,2.934-.482,2.934-1.855,0-1.418-.94-1.991-2.992-1.991Z" transform="translate(0 -7.885)" fill="#231f20"/><polygon points="478.079 0.002 267.75 0.003 267.752 66.916 313.057 66.915 313.057 66.916 245.818 234.831 245.816 234.831 245.816 234.831 178.713 66.916 223.807 66.915 223.805 0.002 223.807 0.002 223.807 66.915 223.807 66.916 178.713 66.916 178.715 66.917 223.808 66.916 223.807 0 14.127 0.002 14.129 66.917 59.165 66.916 14.131 66.916 59.165 66.915 191.897 370.096 299.742 370.096 432.842 66.916 478.079 66.915 478.079 0.002" fill="#231f20"/><polygon points="273.831 6.267 273.831 60.738 322.25 60.738 245.818 252.88 169.57 60.738 217.637 60.738 217.637 6.267 20.208 6.267 20.208 60.738 63.491 60.738 195.998 364.101 295.412 364.101 428.512 60.738 471.817 60.738 471.817 6.267 273.831 6.267" fill="#fff"/><polygon points="248.412 261.725 243.209 261.697 161.554 55.173 212.072 55.173 212.072 11.832 25.774 11.832 25.774 55.173 67.138 55.173 199.647 358.536 291.772 358.536 424.872 55.173 466.252 55.173 466.252 11.832 279.397 11.832 279.397 55.173 330.363 55.173 248.412 261.725" fill="#d0202f"/><path d="M446.619,286.193h0a6.667,6.667,0,0,1-4.186-1.512c-.176-.141-17.313-13.923-34.655-22.75-.607,1.712-1.636,4.513-3.047,8.074-1.887,4.769-4.635,5.77-6.607,5.77-2.694,0-5.019-1.857-6.533-3.254h0s-3.316-2.972-5.008-4.454C367.667,252.034,320.114,216.166,246.1,216a214.188,214.188,0,0,0-141.882,53.272c-1.673,1.482-3.666,3.268-3.667,3.269-1.488,1.373-3.813,3.23-6.505,3.23-1.974,0-4.721-1-6.609-5.77-1.376-3.474-2.384-6.209-3.043-8.055-17.329,8.827-34.443,22.59-34.619,22.731a6.662,6.662,0,0,1-4.185,1.512,5.548,5.548,0,0,1-4.072-1.706,7.031,7.031,0,0,1-1.709-5.428c.227-4.508-.548-49.572-.159-57.164L2.173,185.923a6.035,6.035,0,0,1-2.154-4.946,6.254,6.254,0,0,1,2.59-4.273A480.084,480.084,0,0,1,72.55,133.6a6,6,0,0,1,8.5,3.149c.467,1.065,1.48,3.336,2.288,5.146,12.754-8.314,74.718-45.469,162.77-45.469S396.118,133.582,408.872,141.9c.808-1.809,1.821-4.08,2.288-5.145a6.043,6.043,0,0,1,8.462-3.165A479.637,479.637,0,0,1,489.6,176.7a6.247,6.247,0,0,1,2.592,4.273,5.982,5.982,0,0,1-2.105,4.9L452.559,221.9c.389,7.592-.387,52.656-.161,57.164a7.021,7.021,0,0,1-1.709,5.43A5.551,5.551,0,0,1,446.619,286.193Z" transform="translate(0 -7.885)" fill="#fff"/><path d="M487.822,178.642a473.2,473.2,0,0,0-69.575-42.885,3.6,3.6,0,0,0-5.261,1.959c-.846,1.919-3.456,7.755-3.456,7.755S344.744,98.823,245.735,98.822s-163.8,46.649-163.8,46.649-2.61-5.836-3.456-7.755a3.593,3.593,0,0,0-5.259-1.959A473.117,473.117,0,0,0,3.648,178.642s-3.493,2.346-.225,5.515L41.729,220.89s.352,53.349.1,58.289,3.791,5.491,6.064,3.645,20.185-15.9,37.5-24.229c0,0,.045.141.127.38.382,1.133,1.634,4.757,3.769,10.149,2.6,6.576,6.5,4.213,9.287,1.637,0,0,2-1.79,3.7-3.3a217.969,217.969,0,0,1,285.514-1.2c1.706,1.494,5.056,4.5,5.056,4.5,2.792,2.576,6.684,4.939,9.287-1.637,1.439-3.636,2.477-6.465,3.117-8.271.533-1.359.821-2.258.821-2.258,17.318,8.333,35.233,22.382,37.5,24.229s6.311,1.3,6.064-3.645.1-58.289.1-58.289l38.3-36.733C491.313,180.988,487.822,178.642,487.822,178.642ZM49.354,272.58s-.638-49.493-.437-52.238a5.1,5.1,0,0,0-1.749-4.242L11.429,181.757A476.115,476.115,0,0,1,63.036,149.15S50.834,171.232,49.811,173s-.649,2.3-.1,3.767c.853,2.276,33,75.115,33,75.115C66.348,259.725,49.354,272.58,49.354,272.58Zm346.807-9.232c-27.085-22.882-50.888-35.54-75.869-44.851-33.736-12.573-74.539-12.773-74.539-12.773l-.019,0s-33.536-.9-74.555,12.775c-25.293,8.432-48.784,21.969-75.871,44.851,0,0-36.29-84.1-38.149-88.379,0,0,65.391-68.868,188.556-68.868l.038-.02c123.163,0,188.557,68.888,188.557,68.888C432.451,179.253,396.161,263.348,396.161,263.348ZM444.3,216.1a5.094,5.094,0,0,0-1.749,4.242c.2,2.745-.439,52.238-.439,52.238s-16.994-12.855-33.356-20.694c0,0,32.146-72.839,33-75.115.553-1.47.924-1.994-.1-3.767s-13.224-23.854-13.224-23.854a476.051,476.051,0,0,1,51.606,32.607Z" transform="translate(0 -7.885)" fill="#231f20"/><path d="M159.281,181.132c-2.653-4.881-7.562-7.587-14.2-7.825q-.511-.019-1.02-.019a40.5,40.5,0,0,0-14.478,3.015c-4.77,1.814-8.271,1.631-10.408-.533a6.523,6.523,0,0,1-1.421-2.149,6.214,6.214,0,0,1,.585-5.54c1.275-2.187,3.673-4.046,6.935-5.376a18.949,18.949,0,0,1,7.394-1.74,4.353,4.353,0,0,1,2.121.512l.541.328,1.932,4.736c3.059-1.36,6.412-2.752,10.237-4.252l-4.346-10.647-.178-.038a37.775,37.775,0,0,0-22.5,1.938c-12.34,5.037-18.346,17.684-15.278,25.2a15.015,15.015,0,0,0,2.267,3.828c2.862,3.517,7.335,5.558,12.594,5.747A29.116,29.116,0,0,0,131.972,186c6.553-2.6,11.358-2.649,13.908-.134a6.414,6.414,0,0,1,1.418,2.164,7.039,7.039,0,0,1,.171,4.391c-.818,2.908-3.4,5.268-7.679,7.013a22.543,22.543,0,0,1-9.138,1.9,9.412,9.412,0,0,1-3.748-.773l-.613-.306-.028-.065-1.8-4.422c-3.3,1.657-6.583,3.382-9.756,5.133l4.079,10,.171.042a41.708,41.708,0,0,0,8.6,1.4c4.729.167,9.695-.869,15.584-3.272,9.231-3.768,15.03-8.658,17.236-14.535a16.3,16.3,0,0,0-.309-11.805A15.77,15.77,0,0,0,159.281,181.132Z" transform="translate(0 -7.885)" fill="#231f20"/><path d="M153.413,142.887l3.857,15.795c3.669-1.264,7.5-2.482,11.41-3.621l-1.413-5.772.172-.051c2.625-.763,5.335-1.5,8.05-2.2l.184-.047.044.183,8.525,34.907-.816.2c-1.672.409-3.337.831-4.955,1.256l2.437,9.982c7.888-2.071,15.974-3.82,24.043-5.2L202.5,178.284c-.964.169-1.936.342-2.924.524-.909.169-1.832.346-2.76.527l-.176.035-8.607-35.246.19-.039c2.825-.583,5.622-1.117,8.313-1.587l.173-.03,1.424,5.822c3.782-.641,7.674-1.208,11.885-1.73l-3.894-15.94A280,280,0,0,0,153.413,142.887Z" transform="translate(0 -7.885)" fill="#231f20"/><path d="M333.3,360.224a10.233,10.233,0,0,1,2.968,7.208,9.86,9.86,0,0,1-3,7.216,10.479,10.479,0,0,1-7.293,3.046,10.369,10.369,0,0,1-10.232-10.262,10.47,10.47,0,0,1,3.107-7.353,9.8,9.8,0,0,1,7.125-2.907A10.114,10.114,0,0,1,333.3,360.224Zm-.938.935A8.749,8.749,0,0,0,326,358.51a8.6,8.6,0,0,0-6.214,2.539,9.139,9.139,0,0,0-2.708,6.383,8.857,8.857,0,0,0,2.624,6.246,8.751,8.751,0,0,0,6.211,2.648,9.055,9.055,0,0,0,6.387-2.618,8.523,8.523,0,0,0,2.6-6.187A8.843,8.843,0,0,0,332.358,361.159Zm-1.256,3.456a3.036,3.036,0,0,1-2.651,3.135l2.6,5.3H328.6l-2.365-4.96h-2.166v4.96h-2.2V361.422h4.389C329.507,361.422,331.1,362.5,331.1,364.615Zm-7.037-1.768v3.846h1.85c1.994,0,2.934-.482,2.934-1.855,0-1.418-.94-1.991-2.992-1.991Z" transform="translate(0 -7.885)" fill="#231f20"/><polygon points="478.079 0.002 267.75 0.003 267.752 66.916 313.057 66.915 313.057 66.916 245.818 234.831 245.816 234.831 245.816 234.831 178.713 66.916 223.807 66.915 223.805 0.002 223.807 0.002 223.807 66.915 223.807 66.916 178.713 66.916 178.715 66.917 223.808 66.916 223.807 0 14.127 0.002 14.129 66.917 59.165 66.916 14.131 66.916 59.165 66.915 191.897 370.096 299.742 370.096 432.842 66.916 478.079 66.915 478.079 0.002" fill="#231f20"/><polygon points="273.831 6.267 273.831 60.738 322.25 60.738 245.818 252.88 169.57 60.738 217.637 60.738 217.637 6.267 20.208 6.267 20.208 60.738 63.491 60.738 195.998 364.101 295.412 364.101 428.512 60.738 471.817 60.738 471.817 6.267 273.831 6.267" fill="#fff"/><polygon points="248.412 261.725 243.209 261.697 161.554 55.173 212.072 55.173 212.072 11.832 25.774 11.832 25.774 55.173 67.138 55.173 199.647 358.536 291.772 358.536 424.872 55.173 466.252 55.173 466.252 11.832 279.397 11.832 279.397 55.173 330.363 55.173 248.412 261.725" fill="#d0202f"/><path d="M446.619,286.193h0a6.667,6.667,0,0,1-4.186-1.512c-.176-.141-17.313-13.923-34.655-22.75-.607,1.712-1.636,4.513-3.047,8.074-1.887,4.769-4.635,5.77-6.607,5.77-2.694,0-5.019-1.857-6.533-3.254h0s-3.316-2.972-5.008-4.454C367.667,252.034,320.114,216.166,246.1,216a214.188,214.188,0,0,0-141.882,53.272c-1.673,1.482-3.666,3.268-3.667,3.269-1.488,1.373-3.813,3.23-6.505,3.23-1.974,0-4.721-1-6.609-5.77-1.376-3.474-2.384-6.209-3.043-8.055-17.329,8.827-34.443,22.59-34.619,22.731a6.662,6.662,0,0,1-4.185,1.512,5.548,5.548,0,0,1-4.072-1.706,7.031,7.031,0,0,1-1.709-5.428c.227-4.508-.548-49.572-.159-57.164L2.173,185.923a6.035,6.035,0,0,1-2.154-4.946,6.254,6.254,0,0,1,2.59-4.273A480.084,480.084,0,0,1,72.55,133.6a6,6,0,0,1,8.5,3.149c.467,1.065,1.48,3.336,2.288,5.146,12.754-8.314,74.718-45.469,162.77-45.469S396.118,133.582,408.872,141.9c.808-1.809,1.821-4.08,2.288-5.145a6.043,6.043,0,0,1,8.462-3.165A479.637,479.637,0,0,1,489.6,176.7a6.247,6.247,0,0,1,2.592,4.273,5.982,5.982,0,0,1-2.105,4.9L452.559,221.9c.389,7.592-.387,52.656-.161,57.164a7.021,7.021,0,0,1-1.709,5.43A5.551,5.551,0,0,1,446.619,286.193Z" transform="translate(0 -7.885)" fill="#fff"/><path d="M487.822,178.642a473.2,473.2,0,0,0-69.575-42.885,3.6,3.6,0,0,0-5.261,1.959c-.846,1.919-3.456,7.755-3.456,7.755S344.744,98.823,245.735,98.822s-163.8,46.649-163.8,46.649-2.61-5.836-3.456-7.755a3.593,3.593,0,0,0-5.259-1.959A473.117,473.117,0,0,0,3.648,178.642s-3.493,2.346-.225,5.515L41.729,220.89s.352,53.349.1,58.289,3.791,5.491,6.064,3.645,20.185-15.9,37.5-24.229c0,0,.045.141.127.38.382,1.133,1.634,4.757,3.769,10.149,2.6,6.576,6.5,4.213,9.287,1.637,0,0,2-1.79,3.7-3.3a217.969,217.969,0,0,1,285.514-1.2c1.706,1.494,5.056,4.5,5.056,4.5,2.792,2.576,6.684,4.939,9.287-1.637,1.439-3.636,2.477-6.465,3.117-8.271.533-1.359.821-2.258.821-2.258,17.318,8.333,35.233,22.382,37.5,24.229s6.311,1.3,6.064-3.645.1-58.289.1-58.289l38.3-36.733C491.313,180.988,487.822,178.642,487.822,178.642ZM49.354,272.58s-.638-49.493-.437-52.238a5.1,5.1,0,0,0-1.749-4.242L11.429,181.757A476.115,476.115,0,0,1,63.036,149.15S50.834,171.232,49.811,173s-.649,2.3-.1,3.767c.853,2.276,33,75.115,33,75.115C66.348,259.725,49.354,272.58,49.354,272.58Zm346.807-9.232c-27.085-22.882-50.888-35.54-75.869-44.851-33.736-12.573-74.539-12.773-74.539-12.773l-.019,0s-33.536-.9-74.555,12.775c-25.293,8.432-48.784,21.969-75.871,44.851,0,0-36.29-84.1-38.149-88.379,0,0,65.391-68.868,188.556-68.868l.038-.02c123.163,0,188.557,68.888,188.557,68.888C432.451,179.253,396.161,263.348,396.161,263.348ZM444.3,216.1a5.094,5.094,0,0,0-1.749,4.242c.2,2.745-.439,52.238-.439,52.238s-16.994-12.855-33.356-20.694c0,0,32.146-72.839,33-75.115.553-1.47.924-1.994-.1-3.767s-13.224-23.854-13.224-23.854a476.051,476.051,0,0,1,51.606,32.607Z" transform="translate(0 -7.885)" fill="#231f20"/><path d="M159.281,181.132c-2.653-4.881-7.562-7.587-14.2-7.825q-.511-.019-1.02-.019a40.5,40.5,0,0,0-14.478,3.015c-4.77,1.814-8.271,1.631-10.408-.533a6.523,6.523,0,0,1-1.421-2.149,6.214,6.214,0,0,1,.585-5.54c1.275-2.187,3.673-4.046,6.935-5.376a18.949,18.949,0,0,1,7.394-1.74,4.353,4.353,0,0,1,2.121.512l.541.328,1.932,4.736c3.059-1.36,6.412-2.752,10.237-4.252l-4.346-10.647-.178-.038a37.775,37.775,0,0,0-22.5,1.938c-12.34,5.037-18.346,17.684-15.278,25.2a15.015,15.015,0,0,0,2.267,3.828c2.862,3.517,7.335,5.558,12.594,5.747A29.116,29.116,0,0,0,131.972,186c6.553-2.6,11.358-2.649,13.908-.134a6.414,6.414,0,0,1,1.418,2.164,7.039,7.039,0,0,1,.171,4.391c-.818,2.908-3.4,5.268-7.679,7.013a22.543,22.543,0,0,1-9.138,1.9,9.412,9.412,0,0,1-3.748-.773l-.613-.306-.028-.065-1.8-4.422c-3.3,1.657-6.583,3.382-9.756,5.133l4.079,10,.171.042a41.708,41.708,0,0,0,8.6,1.4c4.729.167,9.695-.869,15.584-3.272,9.231-3.768,15.03-8.658,17.236-14.535a16.3,16.3,0,0,0-.309-11.805A15.77,15.77,0,0,0,159.281,181.132Z" transform="translate(0 -7.885)" fill="#231f20"/><path d="M153.413,142.887l3.857,15.795c3.669-1.264,7.5-2.482,11.41-3.621l-1.413-5.772.172-.051c2.625-.763,5.335-1.5,8.05-2.2l.184-.047.044.183,8.525,34.907-.816.2c-1.672.409-3.337.831-4.955,1.256l2.437,9.982c7.888-2.071,15.974-3.82,24.043-5.2L202.5,178.284c-.964.169-1.936.342-2.924.524-.909.169-1.832.346-2.76.527l-.176.035-8.607-35.246.19-.039c2.825-.583,5.622-1.117,8.313-1.587l.173-.03,1.424,5.822c3.782-.641,7.674-1.208,11.885-1.73l-3.894-15.94A280,280,0,0,0,153.413,142.887Z" transform="translate(0 -7.885)" fill="#231f20"/><path d="M324.957,149.374l-1.443,5.914c4.142,1.226,7.914,2.436,11.516,3.694l3.893-15.952a276.458,276.458,0,0,0-53.258-12.416l-3.9,15.96c3.889.489,7.815,1.078,11.99,1.795l1.444-5.923.173.03c2.869.5,5.7,1.035,8.414,1.6l.191.039-.047.189-8.562,35.087-.175-.033q-1.769-.327-3.509-.628c-.754-.131-1.508-.26-2.253-.384L287,188.334a247.114,247.114,0,0,1,24.318,5.141l2.432-9.971c-.515-.136-1.03-.267-1.545-.4l-.5-.128q-1.8-.462-3.6-.892l-.183-.043.045-.183,8.5-34.834.184.047c2.69.7,5.429,1.454,8.141,2.252Z" transform="translate(0 -7.885)" fill="#231f20"/><path d="M333.3,360.224a10.233,10.233,0,0,1,2.968,7.208,9.86,9.86,0,0,1-3,7.216,10.479,10.479,0,0,1-7.293,3.046,10.369,10.369,0,0,1-10.232-10.262,10.47,10.47,0,0,1,3.107-7.353,9.8,9.8,0,0,1,7.125-2.907A10.114,10.114,0,0,1,333.3,360.224Zm-.938.935A8.749,8.749,0,0,0,326,358.51a8.6,8.6,0,0,0-6.214,2.539,9.139,9.139,0,0,0-2.708,6.383,8.857,8.857,0,0,0,2.624,6.246,8.751,8.751,0,0,0,6.211,2.648,9.055,9.055,0,0,0,6.387-2.618,8.523,8.523,0,0,0,2.6-6.187A8.843,8.843,0,0,0,332.358,361.159Zm-1.256,3.456a3.036,3.036,0,0,1-2.651,3.135l2.6,5.3H328.6l-2.365-4.96h-2.166v4.96h-2.2V361.422h4.389C329.507,361.422,331.1,362.5,331.1,364.615Zm-7.037-1.768v3.846h1.85c1.994,0,2.934-.482,2.934-1.855,0-1.418-.94-1.991-2.992-1.991Z" transform="translate(0 -7.885)" fill="#231f20"/><polygon points="478.079 0.002 267.75 0.003 267.752 66.916 313.057 66.915 313.057 66.916 245.818 234.831 245.816 234.831 245.816 234.831 178.713 66.916 223.807 66.915 223.805 0.002 223.807 0.002 223.807 66.915 223.807 66.916 178.713 66.916 178.715 66.917 223.808 66.916 223.807 0 14.127 0.002 14.129 66.917 59.165 66.916 14.131 66.916 59.165 66.915 191.897 370.096 299.742 370.096 432.842 66.916 478.079 66.915 478.079 0.002" fill="#231f20"/><polygon points="273.831 6.267 273.831 60.738 322.25 60.738 245.818 252.88 169.57 60.738 217.637 60.738 217.637 6.267 20.208 6.267 20.208 60.738 63.491 60.738 195.998 364.101 295.412 364.101 428.512 60.738 471.817 60.738 471.817 6.267 273.831 6.267" fill="#fff"/><polygon points="248.412 261.725 243.209 261.697 161.554 55.173 212.072 55.173 212.072 11.832 25.774 11.832 25.774 55.173 67.138 55.173 199.647 358.536 291.772 358.536 424.872 55.173 466.252 55.173 466.252 11.832 279.397 11.832 279.397 55.173 330.363 55.173 248.412 261.725" fill="#d0202f"/><path d="M446.619,286.193h0a6.667,6.667,0,0,1-4.186-1.512c-.176-.141-17.313-13.923-34.655-22.75-.607,1.712-1.636,4.513-3.047,8.074-1.887,4.769-4.635,5.77-6.607,5.77-2.694,0-5.019-1.857-6.533-3.254h0s-3.316-2.972-5.008-4.454C367.667,252.034,320.114,216.166,246.1,216a214.188,214.188,0,0,0-141.882,53.272c-1.673,1.482-3.666,3.268-3.667,3.269-1.488,1.373-3.813,3.23-6.505,3.23-1.974,0-4.721-1-6.609-5.77-1.376-3.474-2.384-6.209-3.043-8.055-17.329,8.827-34.443,22.59-34.619,22.731a6.662,6.662,0,0,1-4.185,1.512,5.548,5.548,0,0,1-4.072-1.706,7.031,7.031,0,0,1-1.709-5.428c.227-4.508-.548-49.572-.159-57.164L2.173,185.923a6.035,6.035,0,0,1-2.154-4.946,6.254,6.254,0,0,1,2.59-4.273A480.084,480.084,0,0,1,72.55,133.6a6,6,0,0,1,8.5,3.149c.467,1.065,1.48,3.336,2.288,5.146,12.754-8.314,74.718-45.469,162.77-45.469S396.118,133.582,408.872,141.9c.808-1.809,1.821-4.08,2.288-5.145a6.043,6.043,0,0,1,8.462-3.165A479.637,479.637,0,0,1,489.6,176.7a6.247,6.247,0,0,1,2.592,4.273,5.982,5.982,0,0,1-2.105,4.9L452.559,221.9c.389,7.592-.387,52.656-.161,57.164a7.021,7.021,0,0,1-1.709,5.43A5.551,5.551,0,0,1,446.619,286.193Z" transform="translate(0 -7.885)" fill="#fff"/><path d="M487.822,178.642a473.2,473.2,0,0,0-69.575-42.885,3.6,3.6,0,0,0-5.261,1.959c-.846,1.919-3.456,7.755-3.456,7.755S344.744,98.823,245.735,98.822s-163.8,46.649-163.8,46.649-2.61-5.836-3.456-7.755a3.593,3.593,0,0,0-5.259-1.959A473.117,473.117,0,0,0,3.648,178.642s-3.493,2.346-.225,5.515L41.729,220.89s.352,53.349.1,58.289,3.791,5.491,6.064,3.645,20.185-15.9,37.5-24.229c0,0,.045.141.127.38.382,1.133,1.634,4.757,3.769,10.149,2.6,6.576,6.5,4.213,9.287,1.637,0,0,2-1.79,3.7-3.3a217.969,217.969,0,0,1,285.514-1.2c1.706,1.494,5.056,4.5,5.056,4.5,2.792,2.576,6.684,4.939,9.287-1.637,1.439-3.636,2.477-6.465,3.117-8.271.533-1.359.821-2.258.821-2.258,17.318,8.333,35.233,22.382,37.5,24.229s6.311,1.3,6.064-3.645.1-58.289.1-58.289l38.3-36.733C491.313,180.988,487.822,178.642,487.822,178.642ZM49.354,272.58s-.638-49.493-.437-52.238a5.1,5.1,0,0,0-1.749-4.242L11.429,181.757A476.115,476.115,0,0,1,63.036,149.15S50.834,171.232,49.811,173s-.649,2.3-.1,3.767c.853,2.276,33,75.115,33,75.115C66.348,259.725,49.354,272.58,49.354,272.58Zm346.807-9.232c-27.085-22.882-50.888-35.54-75.869-44.851-33.736-12.573-74.539-12.773-74.539-12.773l-.019,0s-33.536-.9-74.555,12.775c-25.293,8.432-48.784,21.969-75.871,44.851,0,0-36.29-84.1-38.149-88.379,0,0,65.391-68.868,188.556-68.868l.038-.02c123.163,0,188.557,68.888,188.557,68.888C432.451,179.253,396.161,263.348,396.161,263.348ZM444.3,216.1a5.094,5.094,0,0,0-1.749,4.242c.2,2.745-.439,52.238-.439,52.238s-16.994-12.855-33.356-20.694c0,0,32.146-72.839,33-75.115.553-1.47.924-1.994-.1-3.767s-13.224-23.854-13.224-23.854a476.051,476.051,0,0,1,51.606,32.607Z" transform="translate(0 -7.885)" fill="#231f20"/><path d="M159.281,181.132c-2.653-4.881-7.562-7.587-14.2-7.825q-.511-.019-1.02-.019a40.5,40.5,0,0,0-14.478,3.015c-4.77,1.814-8.271,1.631-10.408-.533a6.523,6.523,0,0,1-1.421-2.149,6.214,6.214,0,0,1,.585-5.54c1.275-2.187,3.673-4.046,6.935-5.376a18.949,18.949,0,0,1,7.394-1.74,4.353,4.353,0,0,1,2.121.512l.541.328,1.932,4.736c3.059-1.36,6.412-2.752,10.237-4.252l-4.346-10.647-.178-.038a37.775,37.775,0,0,0-22.5,1.938c-12.34,5.037-18.346,17.684-15.278,25.2a15.015,15.015,0,0,0,2.267,3.828c2.862,3.517,7.335,5.558,12.594,5.747A29.116,29.116,0,0,0,131.972,186c6.553-2.6,11.358-2.649,13.908-.134a6.414,6.414,0,0,1,1.418,2.164,7.039,7.039,0,0,1,.171,4.391c-.818,2.908-3.4,5.268-7.679,7.013a22.543,22.543,0,0,1-9.138,1.9,9.412,9.412,0,0,1-3.748-.773l-.613-.306-.028-.065-1.8-4.422c-3.3,1.657-6.583,3.382-9.756,5.133l4.079,10,.171.042a41.708,41.708,0,0,0,8.6,1.4c4.729.167,9.695-.869,15.584-3.272,9.231-3.768,15.03-8.658,17.236-14.535a16.3,16.3,0,0,0-.309-11.805A15.77,15.77,0,0,0,159.281,181.132Z" transform="translate(0 -7.885)" fill="#231f20"/><path d="M153.413,142.887l3.857,15.795c3.669-1.264,7.5-2.482,11.41-3.621l-1.413-5.772.172-.051c2.625-.763,5.335-1.5,8.05-2.2l.184-.047.044.183,8.525,34.907-.816.2c-1.672.409-3.337.831-4.955,1.256l2.437,9.982c7.888-2.071,15.974-3.82,24.043-5.2L202.5,178.284c-.964.169-1.936.342-2.924.524-.909.169-1.832.346-2.76.527l-.176.035-8.607-35.246.19-.039c2.825-.583,5.622-1.117,8.313-1.587l.173-.03,1.424,5.822c3.782-.641,7.674-1.208,11.885-1.73l-3.894-15.94A280,280,0,0,0,153.413,142.887Z" transform="translate(0 -7.885)" fill="#231f20"/><path d="M324.957,149.374l-1.443,5.914c4.142,1.226,7.914,2.436,11.516,3.694l3.893-15.952a276.458,276.458,0,0,0-53.258-12.416l-3.9,15.96c3.889.489,7.815,1.078,11.99,1.795l1.444-5.923.173.03c2.869.5,5.7,1.035,8.414,1.6l.191.039-.047.189-8.562,35.087-.175-.033q-1.769-.327-3.509-.628c-.754-.131-1.508-.26-2.253-.384L287,188.334a247.114,247.114,0,0,1,24.318,5.141l2.432-9.971c-.515-.136-1.03-.267-1.545-.4l-.5-.128q-1.8-.462-3.6-.892l-.183-.043.045-.183,8.5-34.834.184.047c2.69.7,5.429,1.454,8.141,2.252Z" transform="translate(0 -7.885)" fill="#231f20"/><path d="M346.825,145.882l-4.392,9.323c1.14.429,2.378.906,3.875,1.5q1.509.593,3.009,1.2l.183.075-.083.178-15.093,32.031-.162-.062q-.505-.192-1.007-.388c-.518-.2-1.037-.4-1.561-.6s-1.021-.372-1.533-.555l-.536-.191q-1.17-.418-2.343-.823l-4.4,9.347c1.935.647,3.647,1.25,5.233,1.84A312.818,312.818,0,0,1,369.17,217.5l6.978-14.811c-2.568-1.4-5.282-2.819-8.284-4.338l-2.592,5.5-.173-.087c-6.04-3.055-12.332-5.982-18.7-8.7l-.179-.076.082-.176,5.126-10.879,13.038,6.142,3.988-8.469-13.035-6.142.079-.169,5.729-12.158.169.08c4.23,1.994,7.944,3.847,11.349,5.667,2.294,1.225,4.646,2.521,6.991,3.851l.15.086-.073.157-2.525,5.358c2.723,1.553,5.438,3.159,8.078,4.777l7.006-14.871c-4.818-2.914-9.794-5.743-14.789-8.411A263.608,263.608,0,0,0,346.825,145.882Z" transform="translate(0 -7.885)" fill="#231f20"/><path d="M333.3,360.224a10.233,10.233,0,0,1,2.968,7.208,9.86,9.86,0,0,1-3,7.216,10.479,10.479,0,0,1-7.293,3.046,10.369,10.369,0,0,1-10.232-10.262,10.47,10.47,0,0,1,3.107-7.353,9.8,9.8,0,0,1,7.125-2.907A10.114,10.114,0,0,1,333.3,360.224Zm-.938.935A8.749,8.749,0,0,0,326,358.51a8.6,8.6,0,0,0-6.214,2.539,9.139,9.139,0,0,0-2.708,6.383,8.857,8.857,0,0,0,2.624,6.246,8.751,8.751,0,0,0,6.211,2.648,9.055,9.055,0,0,0,6.387-2.618,8.523,8.523,0,0,0,2.6-6.187A8.843,8.843,0,0,0,332.358,361.159Zm-1.256,3.456a3.036,3.036,0,0,1-2.651,3.135l2.6,5.3H328.6l-2.365-4.96h-2.166v4.96h-2.2V361.422h4.389C329.507,361.422,331.1,362.5,331.1,364.615Zm-7.037-1.768v3.846h1.85c1.994,0,2.934-.482,2.934-1.855,0-1.418-.94-1.991-2.992-1.991Z" transform="translate(0 -7.885)" fill="#231f20"/><polygon points="478.079 0.002 267.75 0.003 267.752 66.916 313.057 66.915 313.057 66.916 245.818 234.831 245.816 234.831 245.816 234.831 178.713 66.916 223.807 66.915 223.805 0.002 223.807 0.002 223.807 66.915 223.807 66.916 178.713 66.916 178.715 66.917 223.808 66.916 223.807 0 14.127 0.002 14.129 66.917 59.165 66.916 14.131 66.916 59.165 66.915 191.897 370.096 299.742 370.096 432.842 66.916 478.079 66.915 478.079 0.002" fill="#231f20"/><polygon points="273.831 6.267 273.831 60.738 322.25 60.738 245.818 252.88 169.57 60.738 217.637 60.738 217.637 6.267 20.208 6.267 20.208 60.738 63.491 60.738 195.998 364.101 295.412 364.101 428.512 60.738 471.817 60.738 471.817 6.267 273.831 6.267" fill="#fff"/><polygon points="248.412 261.725 243.209 261.697 161.554 55.173 212.072 55.173 212.072 11.832 25.774 11.832 25.774 55.173 67.138 55.173 199.647 358.536 291.772 358.536 424.872 55.173 466.252 55.173 466.252 11.832 279.397 11.832 279.397 55.173 330.363 55.173 248.412 261.725" fill="#d0202f"/><path d="M446.619,286.193h0a6.667,6.667,0,0,1-4.186-1.512c-.176-.141-17.313-13.923-34.655-22.75-.607,1.712-1.636,4.513-3.047,8.074-1.887,4.769-4.635,5.77-6.607,5.77-2.694,0-5.019-1.857-6.533-3.254h0s-3.316-2.972-5.008-4.454C367.667,252.034,320.114,216.166,246.1,216a214.188,214.188,0,0,0-141.882,53.272c-1.673,1.482-3.666,3.268-3.667,3.269-1.488,1.373-3.813,3.23-6.505,3.23-1.974,0-4.721-1-6.609-5.77-1.376-3.474-2.384-6.209-3.043-8.055-17.329,8.827-34.443,22.59-34.619,22.731a6.662,6.662,0,0,1-4.185,1.512,5.548,5.548,0,0,1-4.072-1.706,7.031,7.031,0,0,1-1.709-5.428c.227-4.508-.548-49.572-.159-57.164L2.173,185.923a6.035,6.035,0,0,1-2.154-4.946,6.254,6.254,0,0,1,2.59-4.273A480.084,480.084,0,0,1,72.55,133.6a6,6,0,0,1,8.5,3.149c.467,1.065,1.48,3.336,2.288,5.146,12.754-8.314,74.718-45.469,162.77-45.469S396.118,133.582,408.872,141.9c.808-1.809,1.821-4.08,2.288-5.145a6.043,6.043,0,0,1,8.462-3.165A479.637,479.637,0,0,1,489.6,176.7a6.247,6.247,0,0,1,2.592,4.273,5.982,5.982,0,0,1-2.105,4.9L452.559,221.9c.389,7.592-.387,52.656-.161,57.164a7.021,7.021,0,0,1-1.709,5.43A5.551,5.551,0,0,1,446.619,286.193Z" transform="translate(0 -7.885)" fill="#fff"/><path d="M487.822,178.642a473.2,473.2,0,0,0-69.575-42.885,3.6,3.6,0,0,0-5.261,1.959c-.846,1.919-3.456,7.755-3.456,7.755S344.744,98.823,245.735,98.822s-163.8,46.649-163.8,46.649-2.61-5.836-3.456-7.755a3.593,3.593,0,0,0-5.259-1.959A473.117,473.117,0,0,0,3.648,178.642s-3.493,2.346-.225,5.515L41.729,220.89s.352,53.349.1,58.289,3.791,5.491,6.064,3.645,20.185-15.9,37.5-24.229c0,0,.045.141.127.38.382,1.133,1.634,4.757,3.769,10.149,2.6,6.576,6.5,4.213,9.287,1.637,0,0,2-1.79,3.7-3.3a217.969,217.969,0,0,1,285.514-1.2c1.706,1.494,5.056,4.5,5.056,4.5,2.792,2.576,6.684,4.939,9.287-1.637,1.439-3.636,2.477-6.465,3.117-8.271.533-1.359.821-2.258.821-2.258,17.318,8.333,35.233,22.382,37.5,24.229s6.311,1.3,6.064-3.645.1-58.289.1-58.289l38.3-36.733C491.313,180.988,487.822,178.642,487.822,178.642ZM49.354,272.58s-.638-49.493-.437-52.238a5.1,5.1,0,0,0-1.749-4.242L11.429,181.757A476.115,476.115,0,0,1,63.036,149.15S50.834,171.232,49.811,173s-.649,2.3-.1,3.767c.853,2.276,33,75.115,33,75.115C66.348,259.725,49.354,272.58,49.354,272.58Zm346.807-9.232c-27.085-22.882-50.888-35.54-75.869-44.851-33.736-12.573-74.539-12.773-74.539-12.773l-.019,0s-33.536-.9-74.555,12.775c-25.293,8.432-48.784,21.969-75.871,44.851,0,0-36.29-84.1-38.149-88.379,0,0,65.391-68.868,188.556-68.868l.038-.02c123.163,0,188.557,68.888,188.557,68.888C432.451,179.253,396.161,263.348,396.161,263.348ZM444.3,216.1a5.094,5.094,0,0,0-1.749,4.242c.2,2.745-.439,52.238-.439,52.238s-16.994-12.855-33.356-20.694c0,0,32.146-72.839,33-75.115.553-1.47.924-1.994-.1-3.767s-13.224-23.854-13.224-23.854a476.051,476.051,0,0,1,51.606,32.607Z" transform="translate(0 -7.885)" fill="#231f20"/><path d="M159.281,181.132c-2.653-4.881-7.562-7.587-14.2-7.825q-.511-.019-1.02-.019a40.5,40.5,0,0,0-14.478,3.015c-4.77,1.814-8.271,1.631-10.408-.533a6.523,6.523,0,0,1-1.421-2.149,6.214,6.214,0,0,1,.585-5.54c1.275-2.187,3.673-4.046,6.935-5.376a18.949,18.949,0,0,1,7.394-1.74,4.353,4.353,0,0,1,2.121.512l.541.328,1.932,4.736c3.059-1.36,6.412-2.752,10.237-4.252l-4.346-10.647-.178-.038a37.775,37.775,0,0,0-22.5,1.938c-12.34,5.037-18.346,17.684-15.278,25.2a15.015,15.015,0,0,0,2.267,3.828c2.862,3.517,7.335,5.558,12.594,5.747A29.116,29.116,0,0,0,131.972,186c6.553-2.6,11.358-2.649,13.908-.134a6.414,6.414,0,0,1,1.418,2.164,7.039,7.039,0,0,1,.171,4.391c-.818,2.908-3.4,5.268-7.679,7.013a22.543,22.543,0,0,1-9.138,1.9,9.412,9.412,0,0,1-3.748-.773l-.613-.306-.028-.065-1.8-4.422c-3.3,1.657-6.583,3.382-9.756,5.133l4.079,10,.171.042a41.708,41.708,0,0,0,8.6,1.4c4.729.167,9.695-.869,15.584-3.272,9.231-3.768,15.03-8.658,17.236-14.535a16.3,16.3,0,0,0-.309-11.805A15.77,15.77,0,0,0,159.281,181.132Z" transform="translate(0 -7.885)" fill="#231f20"/><path d="M153.413,142.887l3.857,15.795c3.669-1.264,7.5-2.482,11.41-3.621l-1.413-5.772.172-.051c2.625-.763,5.335-1.5,8.05-2.2l.184-.047.044.183,8.525,34.907-.816.2c-1.672.409-3.337.831-4.955,1.256l2.437,9.982c7.888-2.071,15.974-3.82,24.043-5.2L202.5,178.284c-.964.169-1.936.342-2.924.524-.909.169-1.832.346-2.76.527l-.176.035-8.607-35.246.19-.039c2.825-.583,5.622-1.117,8.313-1.587l.173-.03,1.424,5.822c3.782-.641,7.674-1.208,11.885-1.73l-3.894-15.94A280,280,0,0,0,153.413,142.887Z" transform="translate(0 -7.885)" fill="#231f20"/><path d="M324.957,149.374l-1.443,5.914c4.142,1.226,7.914,2.436,11.516,3.694l3.893-15.952a276.458,276.458,0,0,0-53.258-12.416l-3.9,15.96c3.889.489,7.815,1.078,11.99,1.795l1.444-5.923.173.03c2.869.5,5.7,1.035,8.414,1.6l.191.039-.047.189-8.562,35.087-.175-.033q-1.769-.327-3.509-.628c-.754-.131-1.508-.26-2.253-.384L287,188.334a247.114,247.114,0,0,1,24.318,5.141l2.432-9.971c-.515-.136-1.03-.267-1.545-.4l-.5-.128q-1.8-.462-3.6-.892l-.183-.043.045-.183,8.5-34.834.184.047c2.69.7,5.429,1.454,8.141,2.252Z" transform="translate(0 -7.885)" fill="#231f20"/><path d="M346.825,145.882l-4.392,9.323c1.14.429,2.378.906,3.875,1.5q1.509.593,3.009,1.2l.183.075-.083.178-15.093,32.031-.162-.062q-.505-.192-1.007-.388c-.518-.2-1.037-.4-1.561-.6s-1.021-.372-1.533-.555l-.536-.191q-1.17-.418-2.343-.823l-4.4,9.347c1.935.647,3.647,1.25,5.233,1.84A312.818,312.818,0,0,1,369.17,217.5l6.978-14.811c-2.568-1.4-5.282-2.819-8.284-4.338l-2.592,5.5-.173-.087c-6.04-3.055-12.332-5.982-18.7-8.7l-.179-.076.082-.176,5.126-10.879,13.038,6.142,3.988-8.469-13.035-6.142.079-.169,5.729-12.158.169.08c4.23,1.994,7.944,3.847,11.349,5.667,2.294,1.225,4.646,2.521,6.991,3.851l.15.086-.073.157-2.525,5.358c2.723,1.553,5.438,3.159,8.078,4.777l7.006-14.871c-4.818-2.914-9.794-5.743-14.789-8.411A263.608,263.608,0,0,0,346.825,145.882Z" transform="translate(0 -7.885)" fill="#231f20"/><path d="M273.407,176.142l-.108-.012-.044-.1-20.7-47.928c-.438-.009-.874-.021-1.311-.032-1.063-.028-2.127-.055-3.2-.064l-2.343.011c-1.748,0-3.507.014-5.23.044L219.24,175.868l-.105.012q-1.567.178-3.2.384-1.535.193-3.131.413v10.41a251.979,251.979,0,0,1,26.019-2.391V174.4c-.489.016-1,.035-1.528.055-1.278.051-2.629.117-4.016.2l-.3.017,2.762-6.6.119-.006c5.8-.264,9.567-.205,10.583-.179,1.194.013,4.511.074,9.443.344l.116.006.047.107,2.8,6.517-.305-.02c-1.3-.083-2.511-.151-3.638-.209-.687-.035-1.35-.068-1.967-.1v10.274c5.981.273,15.35.91,26.4,2.4V176.858c-1.22-.159-2.409-.305-3.585-.444C274.964,176.32,274.178,176.227,273.407,176.142ZM251.523,158.51c-2.453-.093-4.132-.123-4.913-.131h0c-.821-.019-3.106-.052-6.541.033l-.288.007.111-.267,5.8-13.872.176.405,5.952,13.836Z" transform="translate(0 -7.885)" fill="#231f20"/></svg>